<?xml version="1.0" encoding="UTF-8" standalone="no"?>
<!-- Created with Inkscape (http://www.inkscape.org/) -->

<svg
   width="51.505562mm"
   height="38.452789mm"
   viewBox="0 0 51.505562 38.452789"
   version="1.1"
   id="svg1"
   xml:space="preserve"
   sodipodi:docname="folder.svg"
   inkscape:version="1.3.2 (091e20e, 2023-11-25)"
   inkscape:export-filename="folder.svg"
   inkscape:export-xdpi="96"
   inkscape:export-ydpi="96"
   xmlns:inkscape="http://www.inkscape.org/namespaces/inkscape"
   xmlns:sodipodi="http://sodipodi.sourceforge.net/DTD/sodipodi-0.dtd"
   xmlns="http://www.w3.org/2000/svg"
   xmlns:svg="http://www.w3.org/2000/svg"><sodipodi:namedview
     id="namedview1"
     pagecolor="#ffffff"
     bordercolor="#000000"
     borderopacity="0.25"
     inkscape:showpageshadow="2"
     inkscape:pageopacity="0.0"
     inkscape:pagecheckerboard="0"
     inkscape:deskcolor="#d1d1d1"
     inkscape:document-units="mm"
     inkscape:zoom="0.46618638"
     inkscape:cx="67.569542"
     inkscape:cy="108.32577"
     inkscape:window-width="1312"
     inkscape:window-height="802"
     inkscape:window-x="0"
     inkscape:window-y="38"
     inkscape:window-maximized="0"
     inkscape:current-layer="svg1" /><defs
     id="defs1" /><g
     id="g4"
     inkscape:label="folder"
     transform="translate(-8.4325691,-43.794925)"><path
       style="fill:#ffffff;stroke-width:3.38059;stroke-linecap:round;stroke-linejoin:bevel"
       d="m 41.381037,247.51515 v -55.26039 h 89.187703 89.1877 v 55.26039 55.26039 h -89.1877 -89.187703 z"
       id="path2"
       transform="scale(0.26458333)" /><path
       style="fill:#000000"
       d="m 150.48778,182.63815 v -16.05139 h 0.88195 0.88194 v -0.88194 -0.88195 h 1.05833 1.05834 v -0.52916 -0.52917 h 0.52916 0.52917 v -0.88194 -0.88195 h 0.88195 0.88194 v -0.88194 -0.88195 h 6.52639 6.52639 v 0.70556 0.70555 h 0.70555 0.70556 v 0.88195 0.88194 h 0.88194 0.88195 v 0.70556 0.70555 h 13.40555 13.40556 v 0.88195 0.88194 h 0.88194 0.88195 v 16.05139 16.05139 h -25.75278 -25.75278 z m 49.74167,-0.70555 v -14.64028 h -23.63611 -23.63611 v 14.64028 14.64027 h 23.63611 23.63611 z m -28.92778,-17.63889 v -0.52917 h -0.88194 -0.88195 v -0.70556 -0.70555 h -5.82083 -5.82083 v 0.70555 0.70556 h -0.88195 -0.88194 v 0.52917 0.52916 h 7.58472 7.58472 z"
       id="path1"
       transform="translate(-142.05521,-116.44183)" /><path
       style="fill:#ffffff;stroke-width:0.734915;stroke-linecap:round;stroke-linejoin:bevel"
       d="m 53.249188,180.86844 v -1.95564 h 3.35252 3.352519 v -2.68201 -2.68202 h 21.901106 21.901107 l 0.03,2.65408 0.03,2.65408 3.32458,0.0296 3.32458,0.0296 v 1.95397 1.95397 H 81.857356 53.249188 Z"
       id="path3"
       transform="scale(0.26458333)" /></g></svg>
